<svg width="60" height="60" viewBox="0 0 60 60" fill="none" xmlns="http://www.w3.org/2000/svg">
<path d="M54.5887 28.5141C55.2442 26.7146 55.3263 24.756 54.8236 22.9079C54.321 21.0598 53.2583 19.4129 51.7818 18.1936V10.2919H58.5967C58.8338 10.2913 59.0609 10.1966 59.2283 10.0286C59.3957 9.86065 59.4897 9.63316 59.4897 9.39598C59.4842 7.1157 58.5757 4.93051 56.9632 3.31883C55.3507 1.70716 53.1656 0.800323 50.8862 0.796875L9.14282 0.796875C6.86118 0.796868 4.67268 1.70218 3.05735 3.31422C1.44203 4.92627 0.531776 7.11344 0.526245 9.39598L0.526245 58.8905C0.526245 59.1274 0.620328 59.3547 0.787796 59.5222C0.955264 59.6897 1.1824 59.7838 1.41924 59.7838H50.8862C51.1233 59.7838 51.3507 59.6898 51.5186 59.5223C51.6864 59.3549 51.7811 59.1277 51.7818 58.8905V36.6587L52.8811 37.7636C53.6082 38.4911 54.5944 38.8997 55.6227 38.8997C56.651 38.8997 57.6372 38.4911 58.3643 37.7636C59.0915 37.0362 59.5 36.0496 59.5 35.0209C59.5 33.9922 59.0915 33.0056 58.3643 32.2782L54.5887 28.5141ZM53.3772 25.3325C53.3258 27.2728 52.5192 29.1164 51.1293 30.4705C49.7393 31.8247 47.8758 32.5825 45.9356 32.5825C43.9954 32.5825 42.1319 31.8247 40.7419 30.4705C39.3519 29.1164 38.5454 27.2728 38.494 25.3325C38.5454 23.3923 39.3519 21.5487 40.7419 20.1946C42.1319 18.8404 43.9954 18.0826 45.9356 18.0826C47.8758 18.0826 49.7393 18.8404 51.1293 20.1946C52.5192 21.5487 53.3258 23.3923 53.3772 25.3325ZM38.0736 32.9887C37.8365 32.9887 37.6091 33.0827 37.4413 33.2502C37.2734 33.4176 37.1787 33.6449 37.178 33.882V51.122H33.0003V39.3152C33.0024 39.079 32.9111 38.8514 32.7463 38.6821C32.5815 38.5129 32.3565 38.4156 32.1203 38.4114H26.1592C25.9222 38.4121 25.695 38.5068 25.5276 38.6748C25.3603 38.8427 25.2663 39.0702 25.2663 39.3074V51.1142H21.0885V45.2787C21.0885 45.0418 20.9944 44.8146 20.827 44.647C20.6595 44.4795 20.4324 44.3854 20.1955 44.3854H14.2449C14.008 44.3854 13.7809 44.4795 13.6134 44.647C13.446 44.8146 13.3519 45.0418 13.3519 45.2787V51.1247H9.17415V39.6914L16.6445 32.3357L20.5271 34.4593C20.6965 34.5526 20.8917 34.5881 21.083 34.5602C21.2744 34.5324 21.4514 34.4429 21.5872 34.3052L27.2115 28.6839L32.9559 31.1132C33.1298 31.1861 33.3223 31.2023 33.506 31.1597C33.6898 31.117 33.8554 31.0176 33.9794 30.8755L36.9535 27.4405C37.321 28.9928 38.0832 30.4238 39.166 31.5949C40.2488 32.766 41.6155 33.6375 43.1339 34.125V51.1247H38.9562V33.8846C38.9569 33.6491 38.8645 33.4227 38.6992 33.2549C38.5339 33.0871 38.3091 32.9914 38.0736 32.9887ZM31.2221 40.2112V51.1247H27.0444V40.2112H31.2221ZM19.3078 46.1721V51.1351H15.1483V46.1721H19.3078ZM50.8862 2.58357C52.5381 2.58521 54.1333 3.18588 55.3764 4.27425C56.6194 5.36262 57.4258 6.86489 57.6463 8.50264H17.6889C17.5659 7.34188 17.2077 6.21838 16.6362 5.20071C16.0647 4.18303 15.2919 3.29254 14.365 2.58357H50.8862ZM49.9932 58.0024H2.31223V9.39598C2.31223 7.58714 3.0305 5.85238 4.30904 4.57334C5.58757 3.29429 7.32164 2.57573 9.12976 2.57573C10.9379 2.57573 12.672 3.29429 13.9505 4.57334C15.229 5.85238 15.9473 7.58714 15.9473 9.39598C15.948 9.6334 16.0426 9.86089 16.2104 10.0288C16.3782 10.1966 16.6056 10.2913 16.8429 10.2919H50.0037V17.0521C48.6234 16.3885 47.1004 16.0773 45.5705 16.1463C44.0407 16.2154 42.5519 16.6625 41.237 17.4478C39.9221 18.233 38.8222 19.3319 38.0355 20.6463C37.2488 21.9607 36.7999 23.4496 36.7289 24.9799L33.0734 29.2142L27.3812 26.8032C27.2171 26.7344 27.0362 26.7158 26.8615 26.7497C26.6867 26.7836 26.526 26.8686 26.3995 26.9939L20.8065 32.5707L16.9265 30.4471C16.7592 30.3582 16.5681 30.3245 16.3805 30.3507C16.1929 30.377 16.0185 30.4619 15.882 30.5934L9.18198 37.1838V16.2685C9.18198 16.0316 9.0879 15.8043 8.92043 15.6368C8.75296 15.4693 8.52583 15.3751 8.28899 15.3751C8.05216 15.3751 7.82502 15.4693 7.65755 15.6368C7.49009 15.8043 7.396 16.0316 7.396 16.2685V52.018C7.396 52.2552 7.49 52.4827 7.6574 52.6506C7.82479 52.8186 8.05192 52.9133 8.28899 52.914H44.0295C44.2652 52.9112 44.4903 52.8156 44.656 52.6479C44.8217 52.4801 44.9147 52.2538 44.9147 52.018V34.5168C46.3332 34.6767 47.7695 34.4977 49.1054 33.9943L49.9854 34.8746L49.9932 58.0024ZM57.0927 36.502C56.7013 36.892 56.1713 37.111 55.6188 37.111C55.0663 37.111 54.5363 36.892 54.1448 36.502L50.8105 33.1611C52.0031 32.4134 53.011 31.4051 53.7584 30.212L57.0927 33.5477C57.4826 33.9393 57.7015 34.4695 57.7015 35.0222C57.7015 35.5749 57.4826 36.1051 57.0927 36.4968V36.502ZM46.826 21.1714C46.8253 21.4079 46.7309 21.6345 46.5635 21.8014C46.3961 21.9684 46.1694 22.0622 45.933 22.0622C45.0641 22.0629 44.231 22.4085 43.6166 23.0231C43.0022 23.6377 42.6568 24.4712 42.6561 25.3404C42.6561 25.5773 42.562 25.8045 42.3945 25.9721C42.227 26.1396 41.9999 26.2337 41.7631 26.2337C41.5262 26.2337 41.2991 26.1396 41.1316 25.9721C40.9642 25.8045 40.8701 25.5773 40.8701 25.3404C40.8694 23.9962 41.4023 22.7067 42.3517 21.7554C43.3011 20.8042 44.5893 20.269 45.933 20.2676C46.051 20.268 46.1679 20.2917 46.2767 20.3373C46.3856 20.383 46.4844 20.4498 46.5674 20.5338C46.6503 20.6177 46.7159 20.7173 46.7603 20.8268C46.8047 20.9362 46.827 21.0533 46.826 21.1714ZM24.9477 16.2685C24.9477 16.1501 24.9712 16.0328 25.0169 15.9236C25.0626 15.8143 25.1295 15.7153 25.2139 15.6321C25.2982 15.549 25.3981 15.4835 25.508 15.4394C25.6179 15.3952 25.7354 15.3734 25.8537 15.3751H33.875C34.1118 15.3751 34.339 15.4693 34.5064 15.6368C34.6739 15.8043 34.768 16.0316 34.768 16.2685C34.768 16.5054 34.6739 16.7326 34.5064 16.9002C34.339 17.0677 34.1118 17.1618 33.875 17.1618H25.8537C25.7354 17.1636 25.6179 17.1417 25.508 17.0976C25.3981 17.0535 25.2982 16.988 25.2139 16.9048C25.1295 16.8217 25.0626 16.7226 25.0169 16.6134C24.9712 16.5041 24.9477 16.3869 24.9477 16.2685ZM13.3519 16.2685C13.3519 16.0316 13.446 15.8043 13.6134 15.6368C13.7809 15.4693 14.008 15.3751 14.2449 15.3751H21.0781C21.3149 15.3751 21.542 15.4693 21.7095 15.6368C21.877 15.8043 21.9711 16.0316 21.9711 16.2685C21.9711 16.5054 21.877 16.7326 21.7095 16.9002C21.542 17.0677 21.3149 17.1618 21.0781 17.1618H14.2449C14.008 17.1618 13.7809 17.0677 13.6134 16.9002C13.446 16.7326 13.3519 16.5054 13.3519 16.2685ZM13.3519 22.2267C13.3519 21.9898 13.446 21.7626 13.6134 21.595C13.7809 21.4275 14.008 21.3334 14.2449 21.3334H27.9087C28.1455 21.3334 28.3726 21.4275 28.5401 21.595C28.7076 21.7626 28.8017 21.9898 28.8017 22.2267C28.8017 22.4637 28.7076 22.6909 28.5401 22.8584C28.3726 23.026 28.1455 23.1201 27.9087 23.1201H14.2449C14.1267 23.1201 14.0097 23.0966 13.9007 23.0511C13.7917 23.0055 13.6928 22.9388 13.6097 22.8547C13.5267 22.7707 13.4611 22.671 13.4168 22.5614C13.3726 22.4518 13.3505 22.3345 13.3519 22.2163V22.2267Z" fill="#212121"/>
</svg>
