<svg width="97" height="97" viewBox="0 0 97 97" fill="none" xmlns="http://www.w3.org/2000/svg">
<path d="M67.5134 8.12354V43.0835H66.5934L52.7934 45.2302V66.6969C52.7934 75.2835 57.7001 86.3235 65.0601 91.5369C65.3667 91.8435 65.6734 91.8435 65.6734 92.1502C64.7534 93.3769 63.2201 93.9902 61.3801 93.9902H8.32673C5.26006 93.9902 2.50006 91.2302 2.50006 88.1635V8.43021C2.50006 5.05687 4.95339 2.29688 8.32673 2.29688H61.6867C64.7534 2.29688 67.5134 5.05688 67.5134 8.12354Z" stroke="#212121" stroke-width="4.5" stroke-miterlimit="10" stroke-linecap="round" stroke-linejoin="round"/>
<path d="M11.0869 14.8711H29.4869" stroke="#212121" stroke-width="4.5" stroke-miterlimit="10" stroke-linecap="round" stroke-linejoin="round"/>
<path d="M11.0869 28.0566H43.9002" stroke="#212121" stroke-width="4.5" stroke-miterlimit="10" stroke-linecap="round" stroke-linejoin="round"/>
<path d="M11.0869 41.2441H43.9002" stroke="#212121" stroke-width="4.5" stroke-miterlimit="10" stroke-linecap="round" stroke-linejoin="round"/>
<path d="M44.2069 54.4297H11.0869" stroke="#212121" stroke-width="4.5" stroke-miterlimit="10" stroke-linecap="round" stroke-linejoin="round"/>
<path d="M44.2069 67.6172H11.0869" stroke="#212121" stroke-width="4.5" stroke-miterlimit="10" stroke-linecap="round" stroke-linejoin="round"/>
<path d="M10.4734 80.8027H44.2068" stroke="#212121" stroke-width="4.5" stroke-miterlimit="10" stroke-linecap="round" stroke-linejoin="round"/>
<path d="M94.4999 45.2307V66.6974C94.4999 78.3507 84.9932 94.2974 73.6466 94.2974C70.5799 94.2974 67.8199 93.0707 65.0599 91.2307C57.6999 86.0174 52.7932 75.2841 52.7932 66.3907V45.2307L66.2865 43.0841L73.0332 42.1641L94.4999 45.2307Z" stroke="#212121" stroke-width="4.5" stroke-miterlimit="10" stroke-linecap="round" stroke-linejoin="round"/>
<path d="M64.7535 70.6824L69.0468 74.9758L82.5401 61.4824" stroke="#212121" stroke-width="4.5" stroke-miterlimit="10" stroke-linecap="round" stroke-linejoin="round"/>
</svg>
