<svg width="61" height="63" viewBox="0 0 61 63" fill="none" xmlns="http://www.w3.org/2000/svg">
<path d="M8.69947 26.7373L14.7296 23.3964L20.6347 26.9538L19.3207 20.1864L23.6534 16.4289L22.0538 23.3208C21.9668 23.6934 22.1076 24.082 22.4131 24.3127C22.7194 24.5435 23.1308 24.5723 23.4655 24.3865L30.1686 20.6737L36.7309 24.6271C37.0474 24.8196 37.4629 24.8164 37.7852 24.5912C38.0982 24.3723 38.2533 23.9889 38.1805 23.6135L36.7205 16.0919L36.8583 15.9724L41.1992 20.022L39.6405 26.7373L45.6707 23.3964L51.5756 26.9538L50.2618 20.1864L55.4697 15.6697L48.6276 14.8281L45.9412 8.47922L43.0265 14.7265L37.772 15.18L42.5093 11.0719C42.7986 10.8213 42.9121 10.4242 42.8005 10.0583C42.6889 9.69232 42.3731 9.42614 41.993 9.37934L34.3878 8.44417L31.4026 1.38786C31.2532 1.03563 30.9109 0.803971 30.5289 0.796875C30.5223 0.796875 30.5166 0.796875 30.5109 0.796875C30.1355 0.796875 29.7923 1.01436 29.6334 1.3557L26.3939 8.29902L18.7603 8.95809C17.93 9.02917 17.5685 10.0552 18.1826 10.6308L23.4414 15.5359L17.6865 14.8281L15.0003 8.47921L12.0856 14.7265L5.21716 15.3194L10.258 20.022L8.69947 26.7373ZM27.1182 10.1802C27.4633 10.1505 27.7659 9.93913 27.9125 9.6252L30.4674 4.14798L32.8228 9.71407C32.958 10.0332 33.2531 10.2554 33.5963 10.298L39.595 11.0355L35.0288 14.9956C34.7669 15.2225 34.6468 15.5714 34.713 15.9113L35.8647 21.8448L30.6877 18.7263C30.3895 18.5459 30.0178 18.5422 29.7195 18.7088L24.4318 21.6377L25.7982 15.7501C25.8767 15.413 25.7689 15.0594 25.5164 14.823L21.0959 10.6998L27.1182 10.1802Z" fill="#212121"/>
<path d="M60.2095 46.6842C59.619 45.0285 58.4087 43.7407 56.8013 43.0339C55.194 42.327 53.4221 42.3174 51.8051 43.0048L40.9606 47.5847C40.9703 47.4588 40.98 47.3136 40.98 47.178C40.98 45.0672 39.2661 43.3534 37.1552 43.3534H29.3317C29.0121 43.3534 28.7023 43.2856 28.4119 43.15L21.7792 40.1581C20.7432 39.6836 19.5909 39.4319 18.4484 39.4319H12.8325V38.8897C12.8325 37.8246 11.9708 36.9531 10.8959 36.9531H0.18689V61.3921H10.8959C11.9708 61.3921 12.8325 60.5207 12.8325 59.4556V57.9354H15.9406L27.5114 61.6535C28.4699 61.9537 29.4576 62.1087 30.4548 62.1087C32.0235 62.1087 33.592 61.731 34.9863 60.9854L60.5001 47.4685L60.2095 46.6842ZM6.9938 57.7999C6.24822 57.7999 5.63833 57.1899 5.63833 56.4443C5.63833 55.6891 6.24822 55.079 6.9938 55.079C7.73939 55.079 8.3494 55.6891 8.3494 56.4443C8.3494 57.1899 7.73939 57.7999 6.9938 57.7999ZM34.0858 59.2716C32.2559 60.2495 30.0773 60.4335 28.102 59.8042L16.386 56.0376L12.8325 55.9989V41.3684H18.4484C19.3198 41.3684 20.1914 41.5621 20.9756 41.9203L27.6082 44.922C28.1505 45.164 28.7314 45.2899 29.3317 45.2899H37.1552C38.2009 45.2899 39.0434 46.1419 39.0434 47.178C39.0434 48.2237 38.2009 49.0661 37.1552 49.0661H27.0272V51.0026H37.1552C37.8622 51.0026 38.5205 50.8187 39.0822 50.4798L52.5603 44.7864C53.6834 44.312 54.9132 44.3217 56.0268 44.8058C56.8788 45.1834 57.5759 45.8031 58.0406 46.5874L34.0858 59.2716Z" fill="#212121"/>
</svg>
